<svg xmlns="http://www.w3.org/2000/svg" viewBox="0 0 4184 2300"><path d="M197 938.5V211.5H70V938.5Z M959 920.5C977 938.5 996 947.5 1017 947.5C1054 947.5 1080 919.5 1080 871.5V205.5H959V737.5L446 228.5C427 209.5 411 202.5 392 202.5C352 202.5 327 231.5 327 278.5V938.5H448V406.5Z M484 2088.5C689 2088.5 838 1928.5 838 1717.5C838 1506.5 689 1361.5 484 1361.5H63V2088.5ZM189 1961.5V1488.5H484C615 1488.5 711 1586.5 711 1723.5C711 1860.5 615 1961.5 484 1961.5Z M1592 2088.5V1961.5H1068V1488.5H1591V1361.5H942V2088.5ZM1564 1772.5V1665.5H1161V1772.5Z M2061 2088.5V1488.5H2337V1361.5H1658V1488.5H1934V2088.5Z M3195 2088.5 2776 1392.5C2761 1367.5 2743 1351.5 2715 1351.5C2687 1351.5 2668 1367.5 2653 1392.5L2235 2088.5H2380L2710 1530.5L2872 1802.5H2649L2589 1905.5H2933L3042 2088.5Z M3407 2088.5V1361.5H3280V2088.5Z M4156 2088.5V1961.5H3667V1361.5H3540V2088.5Z"/></svg>