<svg xmlns="http://www.w3.org/2000/svg" viewBox="0 0 36551 1150"><path d="M713 938.5V811.5H189V338.5H712V211.5H63V938.5ZM685 622.5V515.5H282V622.5Z M1451 920.5C1469 938.5 1488 947.5 1509 947.5C1546 947.5 1572 919.5 1572 871.5V205.5H1451V737.5L938 228.5C919 209.5 903 202.5 884 202.5C844 202.5 819 231.5 819 278.5V938.5H940V406.5Z M2596 938.5 2459 832.5C2522 766.5 2560 673.5 2560 567.5C2560 356.5 2414 211.5 2204 211.5H2027C1824 211.5 1674 353.5 1674 567.5C1674 778.5 1824 938.5 2027 938.5H2204C2268 938.5 2327 922.5 2377 895.5L2427 938.5ZM2267 803.5C2247 808.5 2226 811.5 2204 811.5H2027C1896 811.5 1801 710.5 1801 573.5C1801 435.5 1897 338.5 2027 338.5H2204C2338 338.5 2433 436.5 2433 573.5C2433 646.5 2405 709.5 2360 752.5L2225 638.5H2057Z M3313 617.5C3313 763.5 3248 823.5 3048 823.5C2848 823.5 2783 763.5 2783 617.5V211.5H2652V617.5C2652 842.5 2764 948.5 3044 948.5C3326 948.5 3437 842.5 3437 617.5V211.5H3313Z M3686 938.5V211.5H3559V938.5Z M4674 938.5 4455 717.5C4549 681.5 4605 596.5 4605 476.5C4605 314.5 4507 211.5 4341 211.5H3819V938.5H3945V338.5H4341C4428 338.5 4480 384.5 4480 478.5C4480 572.5 4432 624.5 4341 624.5H4038V736.5H4310L4494 938.5Z M5390 938.5V811.5H4866V338.5H5389V211.5H4740V938.5ZM5362 622.5V515.5H4959V622.5Z M6704 938.5 6285 242.5C6270 217.5 6252 201.5 6224 201.5C6196 201.5 6177 217.5 6162 242.5L5744 938.5H5889L6219 380.5L6381 652.5H6158L6098 755.5H6442L6551 938.5Z M7328 938.5C7470 938.5 7562 851.5 7562 718.5C7562 633.5 7514 575.5 7448 554.5C7502 537.5 7549 491.5 7549 399.5C7549 275.5 7455 211.5 7313 211.5H6781V938.5ZM7323 622.5C7394 622.5 7433 656.5 7433 716.5C7433 787.5 7367 812.5 7276 812.5H6908V338.5H7265C7359 338.5 7420 350.5 7420 427.5C7420 490.5 7386 515.5 7314 515.5H7000V622.5Z M8182 938.5C8389 938.5 8538 778.5 8538 567.5C8538 356.5 8392 211.5 8182 211.5H8005C7802 211.5 7652 353.5 7652 567.5C7652 778.5 7802 938.5 8005 938.5ZM8005 811.5C7874 811.5 7779 710.5 7779 573.5C7779 435.5 7875 338.5 8005 338.5H8182C8316 338.5 8411 436.5 8411 573.5C8411 710.5 8316 811.5 8182 811.5Z M9291 617.5C9291 763.5 9226 823.5 9026 823.5C8826 823.5 8761 763.5 8761 617.5V211.5H8630V617.5C8630 842.5 8742 948.5 9022 948.5C9304 948.5 9415 842.5 9415 617.5V211.5H9291Z M9890 938.5V338.5H10166V211.5H9487V338.5H9763V938.5Z M10904 938.5V338.5H11180V211.5H10501V338.5H10777V938.5Z M11976 941.5V211.5H11849V512.5H11483V625.5H11849V941.5ZM11391 941.5V211.5H11264V941.5Z M12752 938.5V811.5H12228V338.5H12751V211.5H12102V938.5ZM12724 622.5V515.5H12321V622.5Z M13853 938.5V811.5H13275V716.5C13275 654.5 13311 622.5 13379 622.5H13643C13781 622.5 13865 535.5 13865 415.5C13865 298.5 13786 211.5 13642 211.5H13161V338.5H13642C13699 338.5 13734 372.5 13734 427.5C13734 482.5 13697 515.5 13642 515.5H13379C13233 515.5 13155 584.5 13155 725.5V938.5Z M14336 947.5C14548 947.5 14713 779.5 14713 567.5C14713 354.5 14548 202.5 14336 202.5C14123 202.5 13959 354.5 13959 567.5C13959 779.5 14123 947.5 14336 947.5ZM14585 573.5C14585 713.5 14495 820.5 14335 820.5C14176 820.5 14086 713.5 14086 573.5C14086 433.5 14176 330.5 14336 330.5C14494 330.5 14585 433.5 14585 573.5Z M15516 938.5V811.5H14938V716.5C14938 654.5 14974 622.5 15042 622.5H15306C15444 622.5 15528 535.5 15528 415.5C15528 298.5 15449 211.5 15305 211.5H14824V338.5H15305C15362 338.5 15397 372.5 15397 427.5C15397 482.5 15360 515.5 15305 515.5H15042C14896 515.5 14818 584.5 14818 725.5V938.5Z M16124 938.5C16266 938.5 16358 850.5 16358 718.5C16358 633.5 16310 575.5 16244 554.5C16298 537.5 16344 491.5 16344 399.5C16344 275.5 16251 211.5 16110 211.5H15629V337.5H16085C16169 337.5 16216 360.5 16216 427.5C16216 490.5 16182 515.5 16110 515.5H15798V622.5H16119C16190 622.5 16229 655.5 16229 715.5C16229 778.5 16173 811.5 16093 811.5H15626V938.5Z M17310 938.5C17452 938.5 17544 851.5 17544 718.5C17544 633.5 17496 575.5 17430 554.5C17484 537.5 17531 491.5 17531 399.5C17531 275.5 17437 211.5 17295 211.5H16763V938.5ZM17305 622.5C17376 622.5 17415 656.5 17415 716.5C17415 787.5 17349 812.5 17258 812.5H16890V338.5H17247C17341 338.5 17402 350.5 17402 427.5C17402 490.5 17368 515.5 17296 515.5H16982V622.5Z M18510 938.5 18291 717.5C18385 681.5 18441 596.5 18441 476.5C18441 314.5 18343 211.5 18177 211.5H17655V938.5H17781V338.5H18177C18264 338.5 18316 384.5 18316 478.5C18316 572.5 18268 624.5 18177 624.5H17874V736.5H18146L18330 938.5Z M19487 938.5 19068 242.5C19053 217.5 19035 201.5 19007 201.5C18979 201.5 18960 217.5 18945 242.5L18527 938.5H18672L19002 380.5L19164 652.5H18941L18881 755.5H19225L19334 938.5Z M20111 938.5C20253 938.5 20345 851.5 20345 718.5C20345 633.5 20297 575.5 20231 554.5C20285 537.5 20332 491.5 20332 399.5C20332 275.5 20238 211.5 20096 211.5H19564V938.5ZM20106 622.5C20177 622.5 20216 656.5 20216 716.5C20216 787.5 20150 812.5 20059 812.5H19691V338.5H20048C20142 338.5 20203 350.5 20203 427.5C20203 490.5 20169 515.5 20097 515.5H19783V622.5Z M21106 617.5C21106 763.5 21041 823.5 20841 823.5C20641 823.5 20576 763.5 20576 617.5V211.5H20445V617.5C20445 842.5 20557 948.5 20837 948.5C21119 948.5 21230 842.5 21230 617.5V211.5H21106Z M21890 938.5C22042 938.5 22116 847.5 22116 725.5C22116 584.5 22037 515.5 21890 515.5H21557C21501 515.5 21466 482.5 21466 427.5C21466 372.5 21500 338.5 21558 338.5H22080V211.5H21558C21413 211.5 21334 298.5 21334 415.5C21334 535.5 21419 622.5 21556 622.5H21890C21958 622.5 21996 654.5 21996 716.5C21996 773.5 21958 811.5 21890 811.5H21345V938.5Z M23290 938.5V515.5H22834V622.5H23162V811.5H22851C22720 811.5 22625 710.5 22625 573.5C22625 435.5 22721 338.5 22851 338.5H23245V211.5H22851C22648 211.5 22498 353.5 22498 567.5C22498 778.5 22648 938.5 22851 938.5Z M24127 938.5C24331 938.5 24457 830.5 24457 582.5C24457 333.5 24331 211.5 24127 211.5H23890C23761 211.5 23680 309.5 23680 438.5C23680 588.5 23758 652.5 23890 652.5H24324C24304 764.5 24236 811.5 24127 811.5H23762V938.5ZM23809 445.5C23809 377.5 23848 339.5 23911 339.5H24127C24250 339.5 24320 403.5 24329 546.5H23911C23847 546.5 23809 514.5 23809 445.5Z M24918 947.5C25130 947.5 25295 779.5 25295 567.5C25295 354.5 25130 202.5 24918 202.5C24705 202.5 24541 354.5 24541 567.5C24541 779.5 24705 947.5 24918 947.5ZM25167 573.5C25167 713.5 25077 820.5 24917 820.5C24758 820.5 24668 713.5 24668 573.5C24668 433.5 24758 330.5 24918 330.5C25076 330.5 25167 433.5 25167 573.5Z M25756 947.5C25968 947.5 26133 779.5 26133 567.5C26133 354.5 25968 202.5 25756 202.5C25543 202.5 25379 354.5 25379 567.5C25379 779.5 25543 947.5 25756 947.5ZM26005 573.5C26005 713.5 25915 820.5 25755 820.5C25596 820.5 25506 713.5 25506 573.5C25506 433.5 25596 330.5 25756 330.5C25914 330.5 26005 433.5 26005 573.5Z M27387 938.5 27168 717.5C27262 681.5 27318 596.5 27318 476.5C27318 314.5 27220 211.5 27054 211.5H26532V938.5H26658V338.5H27054C27141 338.5 27193 384.5 27193 478.5C27193 572.5 27145 624.5 27054 624.5H26751V736.5H27023L27207 938.5Z M27945 938.5C28152 938.5 28301 778.5 28301 567.5C28301 356.5 28155 211.5 27945 211.5H27768C27565 211.5 27415 353.5 27415 567.5C27415 778.5 27565 938.5 27768 938.5ZM27768 811.5C27637 811.5 27542 710.5 27542 573.5C27542 435.5 27638 338.5 27768 338.5H27945C28079 338.5 28174 436.5 28174 573.5C28174 710.5 28079 811.5 27945 811.5Z M29130 938.5V811.5H28736C28605 811.5 28510 710.5 28510 573.5C28510 435.5 28606 338.5 28736 338.5H29130V211.5H28736C28533 211.5 28383 353.5 28383 567.5C28383 778.5 28533 938.5 28736 938.5Z M30026 938.5 29535 566.5 30011 211.5H29816L29431 507.5C29405 527.5 29399 543.5 29399 565.5C29399 585.5 29403 601.5 29425 618.5L29832 938.5ZM29360 938.5V211.5H29233V938.5Z M30758 938.5V811.5H30234V338.5H30757V211.5H30108V938.5ZM30730 622.5V515.5H30327V622.5Z M31227 938.5V338.5H31503V211.5H30824V338.5H31100V938.5Z M32531 938.5V811.5H32007V338.5H32530V211.5H31881V938.5ZM32503 622.5V515.5H32100V622.5Z M33061 938.5C33266 938.5 33415 778.5 33415 567.5C33415 356.5 33266 211.5 33061 211.5H32640V938.5ZM32766 811.5V338.5H33061C33192 338.5 33288 436.5 33288 573.5C33288 710.5 33192 811.5 33061 811.5Z M33653 938.5V211.5H33526V938.5Z M34146 938.5V338.5H34422V211.5H33743V338.5H34019V938.5Z M34640 938.5V211.5H34513V938.5Z M35282 938.5C35489 938.5 35638 778.5 35638 567.5C35638 356.5 35492 211.5 35282 211.5H35105C34902 211.5 34752 353.5 34752 567.5C34752 778.5 34902 938.5 35105 938.5ZM35105 811.5C34974 811.5 34879 710.5 34879 573.5C34879 435.5 34975 338.5 35105 338.5H35282C35416 338.5 35511 436.5 35511 573.5C35511 710.5 35416 811.5 35282 811.5Z M36370 920.5C36388 938.5 36407 947.5 36428 947.5C36465 947.5 36491 919.5 36491 871.5V205.5H36370V737.5L35857 228.5C35838 209.5 35822 202.5 35803 202.5C35763 202.5 35738 231.5 35738 278.5V938.5H35859V406.5Z"/></svg>