<svg xmlns="http://www.w3.org/2000/svg" viewBox="0 0 12340 3450"><path d="M713 938.5V811.5H189V338.5H712V211.5H63V938.5ZM685 622.5V515.5H282V622.5Z M1451 920.5C1469 938.5 1488 947.5 1509 947.5C1546 947.5 1572 919.5 1572 871.5V205.5H1451V737.5L938 228.5C919 209.5 903 202.5 884 202.5C844 202.5 819 231.5 819 278.5V938.5H940V406.5Z M2596 938.5 2459 832.5C2522 766.5 2560 673.5 2560 567.5C2560 356.5 2414 211.5 2204 211.5H2027C1824 211.5 1674 353.5 1674 567.5C1674 778.5 1824 938.5 2027 938.5H2204C2268 938.5 2327 922.5 2377 895.5L2427 938.5ZM2267 803.5C2247 808.5 2226 811.5 2204 811.5H2027C1896 811.5 1801 710.5 1801 573.5C1801 435.5 1897 338.5 2027 338.5H2204C2338 338.5 2433 436.5 2433 573.5C2433 646.5 2405 709.5 2360 752.5L2225 638.5H2057Z M3313 617.5C3313 763.5 3248 823.5 3048 823.5C2848 823.5 2783 763.5 2783 617.5V211.5H2652V617.5C2652 842.5 2764 948.5 3044 948.5C3326 948.5 3437 842.5 3437 617.5V211.5H3313Z M3686 938.5V211.5H3559V938.5Z M4674 938.5 4455 717.5C4549 681.5 4605 596.5 4605 476.5C4605 314.5 4507 211.5 4341 211.5H3819V938.5H3945V338.5H4341C4428 338.5 4480 384.5 4480 478.5C4480 572.5 4432 624.5 4341 624.5H4038V736.5H4310L4494 938.5Z M5390 938.5V811.5H4866V338.5H5389V211.5H4740V938.5ZM5362 622.5V515.5H4959V622.5Z M6704 938.5 6285 242.5C6270 217.5 6252 201.5 6224 201.5C6196 201.5 6177 217.5 6162 242.5L5744 938.5H5889L6219 380.5L6381 652.5H6158L6098 755.5H6442L6551 938.5Z M7328 938.5C7470 938.5 7562 851.5 7562 718.5C7562 633.5 7514 575.5 7448 554.5C7502 537.5 7549 491.5 7549 399.5C7549 275.5 7455 211.5 7313 211.5H6781V938.5ZM7323 622.5C7394 622.5 7433 656.5 7433 716.5C7433 787.5 7367 812.5 7276 812.5H6908V338.5H7265C7359 338.5 7420 350.5 7420 427.5C7420 490.5 7386 515.5 7314 515.5H7000V622.5Z M8182 938.5C8389 938.5 8538 778.5 8538 567.5C8538 356.5 8392 211.5 8182 211.5H8005C7802 211.5 7652 353.5 7652 567.5C7652 778.5 7802 938.5 8005 938.5ZM8005 811.5C7874 811.5 7779 710.5 7779 573.5C7779 435.5 7875 338.5 8005 338.5H8182C8316 338.5 8411 436.5 8411 573.5C8411 710.5 8316 811.5 8182 811.5Z M9291 617.5C9291 763.5 9226 823.5 9026 823.5C8826 823.5 8761 763.5 8761 617.5V211.5H8630V617.5C8630 842.5 8742 948.5 9022 948.5C9304 948.5 9415 842.5 9415 617.5V211.5H9291Z M9890 938.5V338.5H10166V211.5H9487V338.5H9763V938.5Z M423 2088.5V1488.5H699V1361.5H20V1488.5H296V2088.5Z M1495 2091.5V1361.5H1368V1662.5H1002V1775.5H1368V2091.5ZM910 2091.5V1361.5H783V2091.5Z M2271 2088.5V1961.5H1747V1488.5H2270V1361.5H1621V2088.5ZM2243 1772.5V1665.5H1840V1772.5Z M3372 2088.5V1961.5H2794V1866.5C2794 1804.5 2830 1772.5 2898 1772.5H3162C3300 1772.5 3384 1685.5 3384 1565.5C3384 1448.5 3305 1361.5 3161 1361.5H2680V1488.5H3161C3218 1488.5 3253 1522.5 3253 1577.5C3253 1632.5 3216 1665.5 3161 1665.5H2898C2752 1665.5 2674 1734.5 2674 1875.5V2088.5Z M3855 2097.5C4067 2097.5 4232 1929.5 4232 1717.5C4232 1504.5 4067 1352.5 3855 1352.5C3642 1352.5 3478 1504.5 3478 1717.5C3478 1929.5 3642 2097.5 3855 2097.5ZM4104 1723.5C4104 1863.5 4014 1970.5 3854 1970.5C3695 1970.5 3605 1863.5 3605 1723.5C3605 1583.5 3695 1480.5 3855 1480.5C4013 1480.5 4104 1583.5 4104 1723.5Z M5035 2088.5V1961.5H4457V1866.5C4457 1804.5 4493 1772.5 4561 1772.5H4825C4963 1772.5 5047 1685.5 5047 1565.5C5047 1448.5 4968 1361.5 4824 1361.5H4343V1488.5H4824C4881 1488.5 4916 1522.5 4916 1577.5C4916 1632.5 4879 1665.5 4824 1665.5H4561C4415 1665.5 4337 1734.5 4337 1875.5V2088.5Z M5707 2088.5C5858 2088.5 5932 1997.5 5932 1875.5C5932 1734.5 5853 1665.5 5707 1665.5H5293V1488.5H5897V1361.5H5162V1772.5H5707C5774 1772.5 5812 1804.5 5812 1866.5C5812 1923.5 5775 1961.5 5707 1961.5H5162V2088.5Z M6852 1886.5C7020 1886.5 7118 1778.5 7118 1621.5C7118 1462.5 7020 1361.5 6852 1361.5H6341V2088.5H6467V1488.5H6852C6941 1488.5 6994 1541.5 6994 1625.5C6994 1707.5 6941 1763.5 6852 1763.5H6560V1886.5Z M7717 2088.5C7924 2088.5 8073 1928.5 8073 1717.5C8073 1506.5 7927 1361.5 7717 1361.5H7540C7337 1361.5 7187 1503.5 7187 1717.5C7187 1928.5 7337 2088.5 7540 2088.5ZM7540 1961.5C7409 1961.5 7314 1860.5 7314 1723.5C7314 1585.5 7410 1488.5 7540 1488.5H7717C7851 1488.5 7946 1586.5 7946 1723.5C7946 1860.5 7851 1961.5 7717 1961.5Z M9031 2088.5 8812 1867.5C8906 1831.5 8962 1746.5 8962 1626.5C8962 1464.5 8864 1361.5 8698 1361.5H8176V2088.5H8302V1488.5H8698C8785 1488.5 8837 1534.5 8837 1628.5C8837 1722.5 8789 1774.5 8698 1774.5H8395V1886.5H8667L8851 2088.5Z M9642 2088.5C9794 2088.5 9868 1997.5 9868 1875.5C9868 1734.5 9789 1665.5 9642 1665.5H9309C9253 1665.5 9218 1632.5 9218 1577.5C9218 1522.5 9252 1488.5 9310 1488.5H9832V1361.5H9310C9165 1361.5 9086 1448.5 9086 1565.5C9086 1685.5 9171 1772.5 9308 1772.5H9642C9710 1772.5 9748 1804.5 9748 1866.5C9748 1923.5 9710 1961.5 9642 1961.5H9097V2088.5Z M10703 2088.5V1961.5H10309C10178 1961.5 10083 1860.5 10083 1723.5C10083 1585.5 10179 1488.5 10309 1488.5H10703V1361.5H10309C10106 1361.5 9956 1503.5 9956 1717.5C9956 1928.5 10106 2088.5 10309 2088.5Z M11518 2091.5V1361.5H11391V1662.5H11025V1775.5H11391V2091.5ZM10933 2091.5V1361.5H10806V2091.5Z M12294 2088.5V1961.5H11770V1488.5H12293V1361.5H11644V2088.5ZM12266 1772.5V1665.5H11863V1772.5Z M489 3238.5C693 3238.5 819 3130.5 819 2882.5C819 2633.5 693 2511.5 489 2511.5H252C123 2511.5 42 2609.5 42 2738.5C42 2888.5 120 2952.5 252 2952.5H686C666 3064.5 598 3111.5 489 3111.5H124V3238.5ZM171 2745.5C171 2677.5 210 2639.5 273 2639.5H489C612 2639.5 682 2703.5 691 2846.5H273C209 2846.5 171 2814.5 171 2745.5Z M1183 3238.5V2749.5C1183 2599.5 1101 2511.5 955 2511.5H885V2638.5H955C1021 2638.5 1057 2677.5 1057 2749.5V3238.5Z M1568 3238.5V2749.5C1568 2599.5 1486 2511.5 1340 2511.5H1270V2638.5H1340C1406 2638.5 1442 2677.5 1442 2749.5V3238.5Z M2348 3238.5V2638.5H2624V2511.5H1945V2638.5H2221V3238.5Z M3358 2917.5C3358 3063.5 3293 3123.5 3093 3123.5C2893 3123.5 2828 3063.5 2828 2917.5V2511.5H2697V2917.5C2697 3142.5 2809 3248.5 3089 3248.5C3371 3248.5 3482 3142.5 3482 2917.5V2511.5H3358Z M4452 3238.5 4233 3017.5C4327 2981.5 4383 2896.5 4383 2776.5C4383 2614.5 4285 2511.5 4119 2511.5H3597V3238.5H3723V2638.5H4119C4206 2638.5 4258 2684.5 4258 2778.5C4258 2872.5 4210 2924.5 4119 2924.5H3816V3036.5H4088L4272 3238.5Z M5064 3238.5C5206 3238.5 5298 3151.5 5298 3018.5C5298 2933.5 5250 2875.5 5184 2854.5C5238 2837.5 5285 2791.5 5285 2699.5C5285 2575.5 5191 2511.5 5049 2511.5H4517V3238.5ZM5059 2922.5C5130 2922.5 5169 2956.5 5169 3016.5C5169 3087.5 5103 3112.5 5012 3112.5H4644V2638.5H5001C5095 2638.5 5156 2650.5 5156 2727.5C5156 2790.5 5122 2815.5 5050 2815.5H4736V2922.5Z M5918 3238.5C6125 3238.5 6274 3078.5 6274 2867.5C6274 2656.5 6128 2511.5 5918 2511.5H5741C5538 2511.5 5388 2653.5 5388 2867.5C5388 3078.5 5538 3238.5 5741 3238.5ZM5741 3111.5C5610 3111.5 5515 3010.5 5515 2873.5C5515 2735.5 5611 2638.5 5741 2638.5H5918C6052 2638.5 6147 2736.5 6147 2873.5C6147 3010.5 6052 3111.5 5918 3111.5Z M7216 3238.5C7368 3238.5 7442 3147.5 7442 3025.5C7442 2884.5 7363 2815.5 7216 2815.5H6883C6827 2815.5 6792 2782.5 6792 2727.5C6792 2672.5 6826 2638.5 6884 2638.5H7406V2511.5H6884C6739 2511.5 6660 2598.5 6660 2715.5C6660 2835.5 6745 2922.5 6882 2922.5H7216C7284 2922.5 7322 2954.5 7322 3016.5C7322 3073.5 7284 3111.5 7216 3111.5H6671V3238.5Z"/></svg>