<svg xmlns="http://www.w3.org/2000/svg" viewBox="0 0 18479 1150"><path d="M692 920.5C710 938.5 729 947.5 750 947.5C787 947.5 813 919.5 813 871.5V205.5H692V737.5L179 228.5C160 209.5 144 202.5 125 202.5C85 202.5 60 231.5 60 278.5V938.5H181V406.5Z M1445 938.5C1652 938.5 1801 778.5 1801 567.5C1801 356.5 1655 211.5 1445 211.5H1268C1065 211.5 915 353.5 915 567.5C915 778.5 1065 938.5 1268 938.5ZM1268 811.5C1137 811.5 1042 710.5 1042 573.5C1042 435.5 1138 338.5 1268 338.5H1445C1579 338.5 1674 436.5 1674 573.5C1674 710.5 1579 811.5 1445 811.5Z M2744 938.5C2886 938.5 2978 851.5 2978 718.5C2978 633.5 2930 575.5 2864 554.5C2918 537.5 2965 491.5 2965 399.5C2965 275.5 2871 211.5 2729 211.5H2197V938.5ZM2739 622.5C2810 622.5 2849 656.5 2849 716.5C2849 787.5 2783 812.5 2692 812.5H2324V338.5H2681C2775 338.5 2836 350.5 2836 427.5C2836 490.5 2802 515.5 2730 515.5H2416V622.5Z M4086 938.5 3900 254.5C3890 219.5 3870 202.5 3839 202.5C3812 202.5 3790 217.5 3778 245.5L3554 759.5L3330 245.5C3318 217.5 3293 202.5 3266 202.5C3232 202.5 3212 219.5 3203 254.5L3016 938.5H3141L3280 427.5L3485 900.5C3498 931.5 3520 948.5 3550 948.5C3581 948.5 3601 931.5 3615 900.5L3821 427.5L3960 938.5Z M4740 908.5C4754 935.5 4778 948.5 4805 948.5C4832 948.5 4856 935.5 4871 908.5L5247 211.5H5105L4809 770.5L4528 211.5H4375L4564 572.5L4454 770.5L4160 211.5H4008L4384 908.5C4399 935.5 4422 948.5 4450 948.5C4476 948.5 4501 935.5 4515 908.5L4628 695.5Z M5753 938.5V211.5H5626V938.5Z M6515 920.5C6533 938.5 6552 947.5 6573 947.5C6610 947.5 6636 919.5 6636 871.5V205.5H6515V737.5L6002 228.5C5983 209.5 5967 202.5 5948 202.5C5908 202.5 5883 231.5 5883 278.5V938.5H6004V406.5Z M7598 938.5C7750 938.5 7824 847.5 7824 725.5C7824 584.5 7745 515.5 7598 515.5H7265C7209 515.5 7174 482.5 7174 427.5C7174 372.5 7208 338.5 7266 338.5H7788V211.5H7266C7121 211.5 7042 298.5 7042 415.5C7042 535.5 7127 622.5 7264 622.5H7598C7666 622.5 7704 654.5 7704 716.5C7704 773.5 7666 811.5 7598 811.5H7053V938.5Z M8293 938.5V338.5H8569V211.5H7890V338.5H8166V938.5Z M9145 938.5C9352 938.5 9501 778.5 9501 567.5C9501 356.5 9355 211.5 9145 211.5H8968C8765 211.5 8615 353.5 8615 567.5C8615 778.5 8765 938.5 8968 938.5ZM8968 811.5C8837 811.5 8742 710.5 8742 573.5C8742 435.5 8838 338.5 8968 338.5H9145C9279 338.5 9374 436.5 9374 573.5C9374 710.5 9279 811.5 9145 811.5Z M10330 938.5V811.5H9936C9805 811.5 9710 710.5 9710 573.5C9710 435.5 9806 338.5 9936 338.5H10330V211.5H9936C9733 211.5 9583 353.5 9583 567.5C9583 778.5 9733 938.5 9936 938.5Z M11226 938.5 10735 566.5 11211 211.5H11016L10631 507.5C10605 527.5 10599 543.5 10599 565.5C10599 585.5 10603 601.5 10625 618.5L11032 938.5ZM10560 938.5V211.5H10433V938.5Z M12457 938.5 12238 717.5C12332 681.5 12388 596.5 12388 476.5C12388 314.5 12290 211.5 12124 211.5H11602V938.5H11728V338.5H12124C12211 338.5 12263 384.5 12263 478.5C12263 572.5 12215 624.5 12124 624.5H11821V736.5H12093L12277 938.5Z M12657 938.5V211.5H12530V938.5Z M13561 938.5V515.5H13105V622.5H13433V811.5H13122C12991 811.5 12896 710.5 12896 573.5C12896 435.5 12992 338.5 13122 338.5H13516V211.5H13122C12919 211.5 12769 353.5 12769 567.5C12769 778.5 12919 938.5 13122 938.5Z M14390 941.5V211.5H14263V512.5H13897V625.5H14263V941.5ZM13805 941.5V211.5H13678V941.5Z M14876 938.5V338.5H15152V211.5H14473V338.5H14749V938.5Z M16159 920.5C16177 938.5 16196 947.5 16217 947.5C16254 947.5 16280 919.5 16280 871.5V205.5H16159V737.5L15646 228.5C15627 209.5 15611 202.5 15592 202.5C15552 202.5 15527 231.5 15527 278.5V938.5H15648V406.5Z M16912 938.5C17119 938.5 17268 778.5 17268 567.5C17268 356.5 17122 211.5 16912 211.5H16735C16532 211.5 16382 353.5 16382 567.5C16382 778.5 16532 938.5 16735 938.5ZM16735 811.5C16604 811.5 16509 710.5 16509 573.5C16509 435.5 16605 338.5 16735 338.5H16912C17046 338.5 17141 436.5 17141 573.5C17141 710.5 17046 811.5 16912 811.5Z M17957 908.5C17971 935.5 17995 948.5 18022 948.5C18049 948.5 18073 935.5 18088 908.5L18464 211.5H18322L18026 770.5L17745 211.5H17592L17781 572.5L17671 770.5L17377 211.5H17225L17601 908.5C17616 935.5 17639 948.5 17667 948.5C17693 948.5 17718 935.5 17732 908.5L17845 695.5Z"/></svg>