<svg xmlns="http://www.w3.org/2000/svg" viewBox="0 0 2574 2300"><path d="M613 938.5C755 938.5 847 851.5 847 718.5C847 633.5 799 575.5 733 554.5C787 537.5 834 491.5 834 399.5C834 275.5 740 211.5 599 211.5H299C158 211.5 65 275.5 65 399.5C65 491.5 111 537.5 165 554.5C99 575.5 51 633.5 51 718.5C51 851.5 143 938.5 285 938.5ZM608 622.5C679 622.5 719 656.5 719 716.5C719 779.5 662 811.5 582 811.5H316C236 811.5 179 779.5 179 716.5C179 656.5 219 622.5 290 622.5ZM575 337.5C658 337.5 705 360.5 705 427.5C705 490.5 671 515.5 599 515.5H299C227 515.5 193 490.5 193 427.5C193 360.5 240 337.5 323 337.5Z M1317 947.5C1529 947.5 1694 779.5 1694 567.5C1694 354.5 1529 202.5 1317 202.5C1104 202.5 940 354.5 940 567.5C940 779.5 1104 947.5 1317 947.5ZM1566 573.5C1566 713.5 1476 820.5 1316 820.5C1157 820.5 1067 713.5 1067 573.5C1067 433.5 1157 330.5 1317 330.5C1475 330.5 1566 433.5 1566 573.5Z M2155 947.5C2367 947.5 2532 779.5 2532 567.5C2532 354.5 2367 202.5 2155 202.5C1942 202.5 1778 354.5 1778 567.5C1778 779.5 1942 947.5 2155 947.5ZM2404 573.5C2404 713.5 2314 820.5 2154 820.5C1995 820.5 1905 713.5 1905 573.5C1905 433.5 1995 330.5 2155 330.5C2313 330.5 2404 433.5 2404 573.5Z M856 2088.5 365 1716.5 841 1361.5H646L261 1657.5C235 1677.5 229 1693.5 229 1715.5C229 1735.5 233 1751.5 255 1768.5L662 2088.5ZM190 2088.5V1361.5H63V2088.5Z M1969 2088.5 1783 1404.5C1773 1369.5 1753 1352.5 1722 1352.5C1695 1352.5 1673 1367.5 1661 1395.5L1437 1909.5L1213 1395.5C1201 1367.5 1176 1352.5 1149 1352.5C1115 1352.5 1095 1369.5 1086 1404.5L899 2088.5H1024L1163 1577.5L1368 2050.5C1381 2081.5 1403 2098.5 1433 2098.5C1464 2098.5 1484 2081.5 1498 2050.5L1704 1577.5L1843 2088.5Z"/></svg>