<svg xmlns="http://www.w3.org/2000/svg" viewBox="0 0 16660 1150"><path d="M1094 938.5 908 254.5C898 219.5 878 202.5 847 202.5C820 202.5 798 217.5 786 245.5L562 759.5L338 245.5C326 217.5 301 202.5 274 202.5C240 202.5 220 219.5 211 254.5L24 938.5H149L288 427.5L493 900.5C506 931.5 528 948.5 558 948.5C589 948.5 609 931.5 623 900.5L829 427.5L968 938.5Z M1828 938.5V811.5H1304V338.5H1827V211.5H1178V938.5ZM1800 622.5V515.5H1397V622.5Z M2792 938.5 2573 717.5C2667 681.5 2723 596.5 2723 476.5C2723 314.5 2625 211.5 2459 211.5H1937V938.5H2063V338.5H2459C2546 338.5 2598 384.5 2598 478.5C2598 572.5 2550 624.5 2459 624.5H2156V736.5H2428L2612 938.5Z M3567 938.5V811.5H3173C3042 811.5 2947 710.5 2947 573.5C2947 435.5 3043 338.5 3173 338.5H3567V211.5H3173C2970 211.5 2820 353.5 2820 567.5C2820 778.5 2970 938.5 3173 938.5Z M4320 938.5V811.5H3796V338.5H4319V211.5H3670V938.5ZM4292 622.5V515.5H3889V622.5Z M4850 938.5C5055 938.5 5204 778.5 5204 567.5C5204 356.5 5055 211.5 4850 211.5H4429V938.5ZM4555 811.5V338.5H4850C4981 338.5 5077 436.5 5077 573.5C5077 710.5 4981 811.5 4850 811.5Z M5958 938.5V811.5H5434V338.5H5957V211.5H5308V938.5ZM5930 622.5V515.5H5527V622.5Z M6612 938.5C6764 938.5 6838 847.5 6838 725.5C6838 584.5 6759 515.5 6612 515.5H6279C6223 515.5 6188 482.5 6188 427.5C6188 372.5 6222 338.5 6280 338.5H6802V211.5H6280C6135 211.5 6056 298.5 6056 415.5C6056 535.5 6141 622.5 6278 622.5H6612C6680 622.5 6718 654.5 6718 716.5C6718 773.5 6680 811.5 6612 811.5H6067V938.5Z M7153 611.5V526.5H6913V611.5Z M8081 938.5 7662 242.5C7647 217.5 7629 201.5 7601 201.5C7573 201.5 7554 217.5 7539 242.5L7121 938.5H7266L7596 380.5L7758 652.5H7535L7475 755.5H7819L7928 938.5Z M9190 938.5 9004 254.5C8994 219.5 8974 202.5 8943 202.5C8916 202.5 8894 217.5 8882 245.5L8658 759.5L8434 245.5C8422 217.5 8397 202.5 8370 202.5C8336 202.5 8316 219.5 8307 254.5L8120 938.5H8245L8384 427.5L8589 900.5C8602 931.5 8624 948.5 8654 948.5C8685 948.5 8705 931.5 8719 900.5L8925 427.5L9064 938.5Z M10005 938.5V515.5H9549V622.5H9877V811.5H9566C9435 811.5 9340 710.5 9340 573.5C9340 435.5 9436 338.5 9566 338.5H9960V211.5H9566C9363 211.5 9213 353.5 9213 567.5C9213 778.5 9363 938.5 9566 938.5Z M11187 938.5V515.5H10731V622.5H11059V811.5H10748C10617 811.5 10522 710.5 10522 573.5C10522 435.5 10618 338.5 10748 338.5H11142V211.5H10748C10545 211.5 10395 353.5 10395 567.5C10395 778.5 10545 938.5 10748 938.5Z M12133 938.5C12270 938.5 12354 858.5 12354 717.5C12354 577.5 12272 514.5 12133 514.5H11707C11723 391.5 11792 338.5 11907 338.5H12324V211.5H11907C11702 211.5 11577 319.5 11577 567.5C11577 816.5 11702 938.5 11907 938.5ZM12121 622.5C12194 622.5 12232 652.5 12232 712.5C12232 775.5 12193 811.5 12121 811.5H11907C11789 811.5 11719 753.5 11706 622.5Z M12951 938.5C13093 938.5 13185 850.5 13185 718.5C13185 633.5 13137 575.5 13071 554.5C13125 537.5 13171 491.5 13171 399.5C13171 275.5 13078 211.5 12937 211.5H12456V337.5H12912C12996 337.5 13043 360.5 13043 427.5C13043 490.5 13009 515.5 12937 515.5H12625V622.5H12946C13017 622.5 13056 655.5 13056 715.5C13056 778.5 13000 811.5 12920 811.5H12453V938.5Z M14243 938.5V744.5H14348V622.5H14243V211.5H14116V622.5H13815C13739 622.5 13703 594.5 13703 510.5V211.5H13576V511.5C13576 672.5 13663 744.5 13815 744.5H14116V938.5Z M15345 938.5 14951 560.5 15313 211.5H15148L14875 480.5L14598 211.5H14423L14785 560.5L14395 938.5H14560L14862 641.5L15167 938.5Z M16088 938.5V744.5H16193V622.5H16088V211.5H15961V622.5H15660C15584 622.5 15548 594.5 15548 510.5V211.5H15421V511.5C15421 672.5 15508 744.5 15660 744.5H15961V938.5Z M16613 563.5V500.5H16324V452.5C16324 421.5 16342 405.5 16376 405.5H16508C16577 405.5 16619 362.5 16619 302.5C16619 243.5 16580 200.5 16508 200.5H16267V263.5H16508C16536 263.5 16554 280.5 16554 308.5C16554 335.5 16535 352.5 16508 352.5H16376C16303 352.5 16264 386.5 16264 457.5V563.5Z"/></svg>