<svg xmlns="http://www.w3.org/2000/svg" viewBox="0 0 8983 3450"><path d="M1094 938.5 908 254.5C898 219.5 878 202.5 847 202.5C820 202.5 798 217.5 786 245.5L562 759.5L338 245.5C326 217.5 301 202.5 274 202.5C240 202.5 220 219.5 211 254.5L24 938.5H149L288 427.5L493 900.5C506 931.5 528 948.5 558 948.5C589 948.5 609 931.5 623 900.5L829 427.5L968 938.5Z M1828 938.5V811.5H1304V338.5H1827V211.5H1178V938.5ZM1800 622.5V515.5H1397V622.5Z M2792 938.5 2573 717.5C2667 681.5 2723 596.5 2723 476.5C2723 314.5 2625 211.5 2459 211.5H1937V938.5H2063V338.5H2459C2546 338.5 2598 384.5 2598 478.5C2598 572.5 2550 624.5 2459 624.5H2156V736.5H2428L2612 938.5Z M3567 938.5V811.5H3173C3042 811.5 2947 710.5 2947 573.5C2947 435.5 3043 338.5 3173 338.5H3567V211.5H3173C2970 211.5 2820 353.5 2820 567.5C2820 778.5 2970 938.5 3173 938.5Z M4320 938.5V811.5H3796V338.5H4319V211.5H3670V938.5ZM4292 622.5V515.5H3889V622.5Z M4850 938.5C5055 938.5 5204 778.5 5204 567.5C5204 356.5 5055 211.5 4850 211.5H4429V938.5ZM4555 811.5V338.5H4850C4981 338.5 5077 436.5 5077 573.5C5077 710.5 4981 811.5 4850 811.5Z M5958 938.5V811.5H5434V338.5H5957V211.5H5308V938.5ZM5930 622.5V515.5H5527V622.5Z M6612 938.5C6764 938.5 6838 847.5 6838 725.5C6838 584.5 6759 515.5 6612 515.5H6279C6223 515.5 6188 482.5 6188 427.5C6188 372.5 6222 338.5 6280 338.5H6802V211.5H6280C6135 211.5 6056 298.5 6056 415.5C6056 535.5 6141 622.5 6278 622.5H6612C6680 622.5 6718 654.5 6718 716.5C6718 773.5 6680 811.5 6612 811.5H6067V938.5Z M7153 611.5V526.5H6913V611.5Z M1094 2088.5 908 1404.5C898 1369.5 878 1352.5 847 1352.5C820 1352.5 798 1367.5 786 1395.5L562 1909.5L338 1395.5C326 1367.5 301 1352.5 274 1352.5C240 1352.5 220 1369.5 211 1404.5L24 2088.5H149L288 1577.5L493 2050.5C506 2081.5 528 2098.5 558 2098.5C589 2098.5 609 2081.5 623 2050.5L829 1577.5L968 2088.5Z M2089 2088.5 1670 1392.5C1655 1367.5 1637 1351.5 1609 1351.5C1581 1351.5 1562 1367.5 1547 1392.5L1129 2088.5H1274L1604 1530.5L1766 1802.5H1543L1483 1905.5H1827L1936 2088.5Z M2421 2088.5V1812.5L2808 1361.5H2646L2362 1696.5L2079 1361.5H1908L2294 1812.5V2088.5Z M3430 2088.5C3572 2088.5 3664 2001.5 3664 1868.5C3664 1783.5 3616 1725.5 3550 1704.5C3604 1687.5 3651 1641.5 3651 1549.5C3651 1425.5 3557 1361.5 3415 1361.5H2883V2088.5ZM3425 1772.5C3496 1772.5 3535 1806.5 3535 1866.5C3535 1937.5 3469 1962.5 3378 1962.5H3010V1488.5H3367C3461 1488.5 3522 1500.5 3522 1577.5C3522 1640.5 3488 1665.5 3416 1665.5H3102V1772.5Z M4629 2088.5 4210 1392.5C4195 1367.5 4177 1351.5 4149 1351.5C4121 1351.5 4102 1367.5 4087 1392.5L3669 2088.5H3814L4144 1530.5L4306 1802.5H4083L4023 1905.5H4367L4476 2088.5Z M5336 2088.5V1961.5H4942C4811 1961.5 4716 1860.5 4716 1723.5C4716 1585.5 4812 1488.5 4942 1488.5H5336V1361.5H4942C4739 1361.5 4589 1503.5 4589 1717.5C4589 1928.5 4739 2088.5 4942 2088.5Z M6151 2091.5V1361.5H6024V1662.5H5658V1775.5H6024V2091.5ZM5566 2091.5V1361.5H5439V2091.5Z M7342 2088.5V1665.5H6886V1772.5H7214V1961.5H6903C6772 1961.5 6677 1860.5 6677 1723.5C6677 1585.5 6773 1488.5 6903 1488.5H7297V1361.5H6903C6700 1361.5 6550 1503.5 6550 1717.5C6550 1928.5 6700 2088.5 6903 2088.5Z M8075 2088.5V1961.5H7586V1361.5H7459V2088.5Z M8711 2088.5C8863 2088.5 8937 1997.5 8937 1875.5C8937 1734.5 8858 1665.5 8711 1665.5H8378C8322 1665.5 8287 1632.5 8287 1577.5C8287 1522.5 8321 1488.5 8379 1488.5H8901V1361.5H8379C8234 1361.5 8155 1448.5 8155 1565.5C8155 1685.5 8240 1772.5 8377 1772.5H8711C8779 1772.5 8817 1804.5 8817 1866.5C8817 1923.5 8779 1961.5 8711 1961.5H8166V2088.5Z M598 3238.5C735 3238.5 819 3158.5 819 3017.5C819 2877.5 737 2814.5 598 2814.5H172C188 2691.5 257 2638.5 372 2638.5H789V2511.5H372C167 2511.5 42 2619.5 42 2867.5C42 3116.5 167 3238.5 372 3238.5ZM586 2922.5C659 2922.5 697 2952.5 697 3012.5C697 3075.5 658 3111.5 586 3111.5H372C254 3111.5 184 3053.5 171 2922.5Z M1291 3247.5C1503 3247.5 1668 3079.5 1668 2867.5C1668 2654.5 1503 2502.5 1291 2502.5C1078 2502.5 914 2654.5 914 2867.5C914 3079.5 1078 3247.5 1291 3247.5ZM1540 2873.5C1540 3013.5 1450 3120.5 1290 3120.5C1131 3120.5 1041 3013.5 1041 2873.5C1041 2733.5 1131 2630.5 1291 2630.5C1449 2630.5 1540 2733.5 1540 2873.5Z M2129 3247.5C2341 3247.5 2506 3079.5 2506 2867.5C2506 2654.5 2341 2502.5 2129 2502.5C1916 2502.5 1752 2654.5 1752 2867.5C1752 3079.5 1916 3247.5 2129 3247.5ZM2378 2873.5C2378 3013.5 2288 3120.5 2128 3120.5C1969 3120.5 1879 3013.5 1879 2873.5C1879 2733.5 1969 2630.5 2129 2630.5C2287 2630.5 2378 2733.5 2378 2873.5Z M3450 3238.5C3602 3238.5 3676 3147.5 3676 3025.5C3676 2884.5 3597 2815.5 3450 2815.5H3117C3061 2815.5 3026 2782.5 3026 2727.5C3026 2672.5 3060 2638.5 3118 2638.5H3640V2511.5H3118C2973 2511.5 2894 2598.5 2894 2715.5C2894 2835.5 2979 2922.5 3116 2922.5H3450C3518 2922.5 3556 2954.5 3556 3016.5C3556 3073.5 3518 3111.5 3450 3111.5H2905V3238.5Z M4296 3036.5C4464 3036.5 4562 2928.5 4562 2771.5C4562 2612.5 4464 2511.5 4296 2511.5H3785V3238.5H3911V2638.5H4296C4385 2638.5 4438 2691.5 4438 2775.5C4438 2857.5 4385 2913.5 4296 2913.5H4004V3036.5Z M5302 3238.5V3111.5H4778V2638.5H5301V2511.5H4652V3238.5ZM5274 2922.5V2815.5H4871V2922.5Z M6137 3238.5V3111.5H5743C5612 3111.5 5517 3010.5 5517 2873.5C5517 2735.5 5613 2638.5 5743 2638.5H6137V2511.5H5743C5540 2511.5 5390 2653.5 5390 2867.5C5390 3078.5 5540 3238.5 5743 3238.5Z M6785 3238.5C6937 3238.5 7011 3147.5 7011 3025.5C7011 2884.5 6932 2815.5 6785 2815.5H6452C6396 2815.5 6361 2782.5 6361 2727.5C6361 2672.5 6395 2638.5 6453 2638.5H6975V2511.5H6453C6308 2511.5 6229 2598.5 6229 2715.5C6229 2835.5 6314 2922.5 6451 2922.5H6785C6853 2922.5 6891 2954.5 6891 3016.5C6891 3073.5 6853 3111.5 6785 3111.5H6240V3238.5Z"/></svg>