<svg xmlns="http://www.w3.org/2000/svg" viewBox="0 0 9539 1150"><path d="M715 938.5V744.5H820V622.5H715V211.5H588V622.5H287C211 622.5 175 594.5 175 510.5V211.5H48V511.5C48 672.5 135 744.5 287 744.5H588V938.5Z M1044 878.5C1044 840.5 1014 810.5 975 810.5C937 810.5 908 840.5 908 878.5C908 916.5 937 946.5 975 946.5C1014 946.5 1044 916.5 1044 878.5Z M1733 938.5V744.5H1838V622.5H1733V211.5H1606V622.5H1305C1229 622.5 1193 594.5 1193 510.5V211.5H1066V511.5C1066 672.5 1153 744.5 1305 744.5H1606V938.5Z M2542 938.5V811.5H2053V211.5H1926V938.5Z M3296 907.5C3311 932.5 3330 948.5 3358 948.5C3384 948.5 3404 932.5 3419 907.5L3838 211.5H3692L3363 771.5L3033 211.5H2878Z M4369 938.5C4511 938.5 4603 851.5 4603 718.5C4603 633.5 4555 575.5 4489 554.5C4543 537.5 4590 491.5 4590 399.5C4590 275.5 4496 211.5 4355 211.5H4055C3914 211.5 3821 275.5 3821 399.5C3821 491.5 3867 537.5 3921 554.5C3855 575.5 3807 633.5 3807 718.5C3807 851.5 3899 938.5 4041 938.5ZM4364 622.5C4435 622.5 4475 656.5 4475 716.5C4475 779.5 4418 811.5 4338 811.5H4072C3992 811.5 3935 779.5 3935 716.5C3935 656.5 3975 622.5 4046 622.5ZM4331 337.5C4414 337.5 4461 360.5 4461 427.5C4461 490.5 4427 515.5 4355 515.5H4055C3983 515.5 3949 490.5 3949 427.5C3949 360.5 3996 337.5 4079 337.5Z M5556 938.5C5707 938.5 5781 847.5 5781 725.5C5781 584.5 5702 515.5 5556 515.5H5142V338.5H5746V211.5H5011V622.5H5556C5623 622.5 5661 654.5 5661 716.5C5661 773.5 5624 811.5 5556 811.5H5011V938.5Z M6377 938.5C6519 938.5 6611 850.5 6611 718.5C6611 633.5 6563 575.5 6497 554.5C6551 537.5 6597 491.5 6597 399.5C6597 275.5 6504 211.5 6363 211.5H5882V337.5H6338C6422 337.5 6469 360.5 6469 427.5C6469 490.5 6435 515.5 6363 515.5H6051V622.5H6372C6443 622.5 6482 655.5 6482 715.5C6482 778.5 6426 811.5 6346 811.5H5879V938.5Z M7079 947.5C7291 947.5 7456 779.5 7456 567.5C7456 354.5 7291 202.5 7079 202.5C6866 202.5 6702 354.5 6702 567.5C6702 779.5 6866 947.5 7079 947.5ZM7328 573.5C7328 713.5 7238 820.5 7078 820.5C6919 820.5 6829 713.5 6829 573.5C6829 433.5 6919 330.5 7079 330.5C7237 330.5 7328 433.5 7328 573.5Z M8366 736.5C8534 736.5 8632 628.5 8632 471.5C8632 312.5 8534 211.5 8366 211.5H7855V938.5H7981V338.5H8366C8455 338.5 8508 391.5 8508 475.5C8508 557.5 8455 613.5 8366 613.5H8074V736.5Z M9267 938.5C9419 938.5 9493 847.5 9493 725.5C9493 584.5 9414 515.5 9267 515.5H8934C8878 515.5 8843 482.5 8843 427.5C8843 372.5 8877 338.5 8935 338.5H9457V211.5H8935C8790 211.5 8711 298.5 8711 415.5C8711 535.5 8796 622.5 8933 622.5H9267C9335 622.5 9373 654.5 9373 716.5C9373 773.5 9335 811.5 9267 811.5H8722V938.5Z"/></svg>